<?xml version="1.0" encoding="UTF-8"?>
<svg xmlns="http://www.w3.org/2000/svg" xmlns:xlink="http://www.w3.org/1999/xlink" width="512px" height="512px" viewBox="0 0 512 512" version="1.1">
<g id="surface1">
<path style=" stroke:none;fill-rule:nonzero;fill:rgb(19.215687%,19.215687%,19.607843%);fill-opacity:1;" d="M 0 0 C 168.960938 0 337.921875 0 512 0 C 512 168.960938 512 337.921875 512 512 C 343.039062 512 174.078125 512 0 512 C 0 343.039062 0 174.078125 0 0 Z M 0 0 "/>
<path style=" stroke:none;fill-rule:nonzero;fill:rgb(5.490196%,19.607843%,33.725491%);fill-opacity:1;" d="M 374.746094 237.664062 C 378.640625 240.261719 381.671875 243.136719 383.5 247.5 C 383.683594 247.921875 383.863281 248.34375 384.050781 248.78125 C 384.695312 251.246094 384.683594 253.621094 384.6875 256.15625 C 384.699219 256.652344 384.710938 257.152344 384.726562 257.664062 C 384.746094 263.402344 382.308594 267.765625 378.5 272 C 372.941406 276.476562 366.59375 277.09375 359.679688 276.359375 C 354.609375 275.4375 350.984375 272.609375 348 268.5 C 345.316406 264.078125 344.894531 260.183594 344.84375 255.09375 C 344.828125 254.621094 344.816406 254.148438 344.800781 253.660156 C 344.753906 248.699219 346.566406 244.589844 350 241 C 356.648438 235.402344 366.671875 233.484375 374.746094 237.664062 Z M 374.746094 237.664062 "/>
<path style=" stroke:none;fill-rule:nonzero;fill:rgb(63.921571%,84.313726%,22.745098%);fill-opacity:1;" d="M 162.5 202.5 C 162.714844 208.667969 162.0625 214.769531 161.5 220.90625 C 161.402344 221.984375 161.308594 223.0625 161.210938 224.140625 C 160.976562 226.761719 160.738281 229.378906 160.5 232 C 158.808594 231.203125 157.734375 230.324219 156.4375 228.96875 C 155.109375 227.542969 155.109375 227.542969 153.5 226.5 C 153.386719 226.765625 153.273438 227.035156 153.15625 227.3125 C 152.285156 228.886719 151.144531 230.179688 149.96875 231.53125 C 149.46875 232.113281 148.96875 232.695312 148.46875 233.277344 C 148.222656 233.566406 147.972656 233.855469 147.71875 234.15625 C 146.6875 235.367188 145.6875 236.605469 144.6875 237.84375 C 142.898438 240.042969 141.027344 242.148438 139.117188 244.242188 C 137.992188 245.507812 136.933594 246.804688 135.875 248.125 C 133.546875 251.003906 131.035156 253.691406 128.5 256.390625 C 127.367188 257.601562 126.265625 258.832031 125.1875 260.09375 C 123.5625 261.980469 121.796875 263.714844 120.03125 265.460938 C 117.808594 267.667969 115.726562 269.96875 113.765625 272.414062 C 113.195312 273.121094 112.601562 273.8125 112 274.5 C 111.671875 274.5 111.339844 274.5 111 274.5 C 109.722656 271.945312 110.195312 268.097656 110.132812 265.265625 C 110.105469 264.347656 110.070312 263.433594 110.019531 262.519531 C 109.78125 258.023438 109.570312 254.125 112.511719 250.476562 C 113.554688 249.328125 114.640625 248.238281 115.777344 247.179688 C 116.691406 246.320312 117.496094 245.386719 118.296875 244.421875 C 118.78125 243.863281 119.265625 243.308594 119.75 242.75 C 126.132812 235.394531 126.132812 235.394531 132.351562 227.898438 C 133.671875 226.289062 135.023438 224.707031 136.375 223.125 C 138.199219 220.988281 139.929688 218.832031 141.5 216.5 C 141.085938 216.386719 140.675781 216.273438 140.25 216.15625 C 138.132812 215.363281 136.375 214.246094 134.5 213 C 135.898438 211.601562 137.59375 211.132812 139.414062 210.460938 C 139.808594 210.3125 140.203125 210.164062 140.609375 210.011719 C 141.875 209.535156 143.140625 209.066406 144.40625 208.59375 C 145.648438 208.128906 146.890625 207.664062 148.132812 207.195312 C 148.945312 206.894531 149.753906 206.589844 150.566406 206.289062 C 152.378906 205.613281 154.183594 204.933594 155.980469 204.21875 C 156.554688 203.988281 157.132812 203.761719 157.726562 203.523438 C 158.21875 203.324219 158.710938 203.125 159.21875 202.921875 C 160.5 202.5 160.5 202.5 162.5 202.5 Z M 162.5 202.5 "/>
<path style=" stroke:none;fill-rule:nonzero;fill:rgb(16.862746%,17.647059%,50.196081%);fill-opacity:1;" d="M 85.5 226.5 C 85.503906 227.148438 85.503906 227.148438 85.507812 227.808594 C 85.539062 231.898438 85.574219 235.984375 85.617188 240.074219 C 85.640625 242.175781 85.660156 244.277344 85.671875 246.378906 C 85.6875 248.414062 85.707031 250.445312 85.730469 252.476562 C 85.738281 253.25 85.746094 254.019531 85.75 254.792969 C 85.777344 260.859375 86.5625 266.382812 89.0625 271.96875 C 89.210938 272.304688 89.359375 272.636719 89.511719 272.980469 C 91.667969 277.648438 94.546875 281.921875 98.390625 285.367188 C 99 286 99 286 99 287 C 99.292969 287.128906 99.582031 287.257812 99.882812 287.390625 C 101.082031 288.046875 101.867188 288.765625 102.84375 289.71875 C 106.222656 292.789062 110.125 295.109375 114 297.5 C 114.488281 297.804688 114.976562 298.109375 115.476562 298.421875 C 117.320312 299.667969 117.320312 299.667969 119.417969 299.851562 C 120.667969 299.445312 121.617188 298.875 122.71875 298.15625 C 123.136719 297.890625 123.550781 297.621094 123.980469 297.347656 C 124.410156 297.066406 124.839844 296.789062 125.28125 296.5 C 126.136719 295.945312 126.988281 295.394531 127.84375 294.84375 C 128.222656 294.597656 128.601562 294.351562 128.988281 294.101562 C 130 293.5 130 293.5 131.5 293 C 131.5 292.671875 131.5 292.339844 131.5 292 C 131.996094 291.835938 132.488281 291.671875 133 291.5 C 133.933594 292.535156 134.859375 293.578125 135.78125 294.625 C 136.046875 294.917969 136.3125 295.210938 136.589844 295.515625 C 137.34375 296.382812 137.34375 296.382812 138.5 298 C 138.40625 299.269531 138.183594 299.820312 137.273438 300.714844 C 136.964844 300.929688 136.65625 301.144531 136.335938 301.367188 C 135.992188 301.609375 135.644531 301.855469 135.289062 302.105469 C 134.726562 302.488281 134.726562 302.488281 134.15625 302.875 C 133.585938 303.269531 133.585938 303.269531 133.003906 303.671875 C 122.1875 311.054688 122.1875 311.054688 118.65625 310.96875 C 116.269531 310.292969 114.183594 309.195312 112 308.03125 C 111.535156 307.785156 111.070312 307.542969 110.59375 307.289062 C 106.636719 305.15625 103.074219 302.71875 99.5 300 C 98.851562 299.554688 98.207031 299.113281 97.558594 298.667969 C 97.042969 298.28125 96.53125 297.898438 96 297.5 C 96 297.171875 96 296.839844 96 296.5 C 95.710938 296.375 95.425781 296.25 95.128906 296.117188 C 91.65625 294.214844 89.113281 290.621094 86.71875 287.53125 C 86.496094 287.246094 86.277344 286.964844 86.050781 286.671875 C 84.5 284.628906 84.5 284.628906 84.5 283.5 C 83.757812 283.253906 83.757812 283.253906 83 283 C 82.476562 281.84375 81.976562 280.675781 81.5 279.5 C 81.269531 279.207031 81.035156 278.917969 80.796875 278.617188 C 79.734375 277.125 79.128906 275.515625 78.5 273.8125 C 78.304688 273.285156 78.304688 273.285156 78.105469 272.75 C 76.894531 269.390625 76.117188 266.015625 75.5 262.5 C 75.371094 261.796875 75.371094 261.796875 75.238281 261.082031 C 75.011719 259.570312 74.941406 258.164062 74.941406 256.636719 C 74.941406 256.085938 74.941406 255.535156 74.941406 254.96875 C 74.945312 254.382812 74.949219 253.796875 74.953125 253.191406 C 74.953125 252.585938 74.953125 251.980469 74.953125 251.355469 C 74.957031 249.425781 74.960938 247.492188 74.96875 245.5625 C 74.972656 244.25 74.972656 242.941406 74.976562 241.628906 C 74.980469 238.417969 74.988281 235.210938 75 232 C 76.65625 231.082031 78.3125 230.164062 79.96875 229.25 C 80.441406 228.988281 80.914062 228.726562 81.402344 228.453125 C 81.851562 228.207031 82.300781 227.957031 82.765625 227.703125 C 83.179688 227.472656 83.597656 227.242188 84.023438 227.003906 C 85 226.5 85 226.5 85.5 226.5 Z M 85.5 226.5 "/>
<path style=" stroke:none;fill-rule:nonzero;fill:rgb(2.745098%,15.686275%,27.450982%);fill-opacity:1;" d="M 389.96875 246.953125 C 390.867188 246.960938 390.867188 246.960938 391.78125 246.96875 C 392.679688 246.976562 392.679688 246.976562 393.59375 246.984375 C 394.058594 246.988281 394.523438 246.992188 395 247 C 395.730469 248.324219 396 248.945312 396 250.5 C 396.269531 250.246094 396.535156 249.996094 396.8125 249.734375 C 400.144531 246.972656 402.933594 246.390625 407.140625 246.695312 C 409.785156 247.128906 411.316406 247.917969 413 250 C 416.382812 254.871094 416.566406 260.230469 416 266 C 415.039062 270.140625 413.117188 273.210938 409.5 275.5 C 407.5625 276.453125 405.933594 276.664062 403.78125 276.6875 C 403.234375 276.703125 402.6875 276.714844 402.125 276.730469 C 400.5 276.5 400.5 276.5 397.5 274.5 C 397.335938 278.296875 397.171875 282.089844 397 286 C 394.03125 286 391.058594 286 388 286 C 387.988281 280.988281 387.980469 275.976562 387.972656 270.964844 C 387.972656 268.640625 387.96875 266.3125 387.960938 263.988281 C 387.957031 261.742188 387.953125 259.5 387.953125 257.257812 C 387.953125 256.398438 387.949219 255.539062 387.945312 254.683594 C 387.945312 253.484375 387.941406 252.289062 387.941406 251.089844 C 387.941406 250.734375 387.941406 250.375 387.9375 250.003906 C 387.945312 247.019531 387.945312 247.019531 389.96875 246.953125 Z M 389.96875 246.953125 "/>
<path style=" stroke:none;fill-rule:nonzero;fill:rgb(12.941177%,53.725493%,81.568629%);fill-opacity:1;" d="M 172 236 C 174.96875 236 177.941406 236 181 236 C 181 241.28125 181 246.558594 181 252 C 181.988281 252 182.980469 252 184 252 C 184.132812 251.714844 184.269531 251.425781 184.40625 251.132812 C 185.019531 249.960938 185.71875 248.949219 186.507812 247.882812 C 186.800781 247.484375 187.097656 247.082031 187.40625 246.667969 C 187.714844 246.25 188.023438 245.835938 188.34375 245.40625 C 188.792969 244.796875 188.792969 244.796875 189.253906 244.175781 C 189.859375 243.355469 190.472656 242.539062 191.089844 241.730469 C 191.699219 240.90625 192.277344 240.0625 192.824219 239.199219 C 194.832031 236.195312 194.832031 236.195312 196.710938 235.648438 C 198.078125 235.558594 199.355469 235.605469 200.71875 235.71875 C 201.179688 235.738281 201.640625 235.757812 202.117188 235.78125 C 203.246094 235.832031 204.371094 235.90625 205.5 236 C 204.675781 238.589844 203.09375 240.585938 201.5 242.75 C 201.210938 243.148438 200.925781 243.542969 200.628906 243.953125 C 199.269531 245.816406 197.890625 247.65625 196.441406 249.445312 C 196.207031 249.738281 195.972656 250.03125 195.734375 250.328125 C 195.101562 251.109375 194.457031 251.878906 193.816406 252.648438 C 192.90625 253.90625 192.90625 253.90625 192.949219 255.195312 C 193.757812 257.113281 194.964844 258.621094 196.25 260.25 C 196.800781 260.960938 197.347656 261.675781 197.894531 262.390625 C 198.167969 262.746094 198.4375 263.101562 198.71875 263.464844 C 199.835938 264.945312 200.894531 266.464844 201.9375 268 C 203.398438 270.140625 204.894531 272.222656 206.5 274.257812 C 207 275 207 275 207 276 C 203.523438 276.613281 199.917969 277.070312 196.5 276 C 193.691406 273.914062 191.976562 270.738281 190.238281 267.761719 C 189.164062 265.929688 187.988281 264.183594 186.78125 262.4375 C 186.597656 262.144531 186.417969 261.851562 186.226562 261.550781 C 185.640625 260.625 185.640625 260.625 184.5 259.5 C 182.765625 259.253906 182.765625 259.253906 181 259 C 181 264.609375 181 270.21875 181 276 C 178.03125 276 175.058594 276 172 276 C 172 262.800781 172 249.601562 172 236 Z M 172 236 "/>
<path style=" stroke:none;fill-rule:nonzero;fill:rgb(16.862746%,64.705884%,90.196079%);fill-opacity:1;" d="M 139.5 206 C 137.761719 207.464844 135.828125 208.289062 133.75 209.15625 C 131.285156 210.183594 129.050781 211.269531 126.78125 212.6875 C 123.300781 214.488281 119.675781 214.273438 115.847656 214.339844 C 102.746094 214.609375 88.0625 219.226562 77.234375 226.664062 C 76 227.5 76 227.5 75 227.5 C 75 223.539062 75 219.578125 75 215.5 C 82.382812 211.808594 89.5 208.554688 97.5 206.5 C 97.996094 206.371094 98.492188 206.246094 99.003906 206.113281 C 112.074219 202.910156 126.441406 202.566406 139.5 206 Z M 139.5 206 "/>
<path style=" stroke:none;fill-rule:nonzero;fill:rgb(12.156863%,52.549022%,80.784315%);fill-opacity:1;" d="M 274.578125 247.449219 C 277.925781 249.453125 280.277344 251.785156 281.5 255.5 C 281.5 258.140625 281.5 260.78125 281.5 263.5 C 275.230469 263.5 268.960938 263.5 262.5 263.5 C 264.332031 268.417969 264.332031 268.417969 267 269.5 C 269.566406 269.800781 272.078125 269.851562 274.4375 268.71875 C 276 268 276 268 277.3125 268 C 278.949219 268.691406 279.871094 269.644531 281 271 C 281 271.496094 281 271.988281 281 272.5 C 280.140625 273.265625 280.140625 273.265625 278.96875 274.03125 C 278.589844 274.285156 278.214844 274.539062 277.828125 274.796875 C 273.65625 277.003906 268.554688 277.238281 264.007812 276.140625 C 259.449219 274.433594 257.355469 272.074219 255.101562 267.859375 C 253.390625 263.988281 253.371094 259.078125 254.886719 255.132812 C 256.851562 251.511719 259.851562 248.546875 263.628906 246.886719 C 267.144531 245.894531 271.214844 245.925781 274.578125 247.449219 Z M 274.578125 247.449219 "/>
<path style=" stroke:none;fill-rule:nonzero;fill:rgb(12.941177%,51.764709%,80.000001%);fill-opacity:1;" d="M 245.6875 247.34375 C 248.21875 248.792969 249.644531 250.730469 250.5 253.5 C 250.640625 255.144531 250.628906 256.78125 250.617188 258.429688 C 250.613281 258.902344 250.613281 259.375 250.613281 259.863281 C 250.613281 260.855469 250.609375 261.851562 250.601562 262.847656 C 250.59375 264.375 250.59375 265.90625 250.59375 267.4375 C 250.589844 268.402344 250.585938 269.371094 250.585938 270.335938 C 250.582031 270.796875 250.582031 271.253906 250.582031 271.730469 C 250.558594 274.941406 250.558594 274.941406 250 275.5 C 248.734375 275.535156 247.484375 275.546875 246.21875 275.53125 C 245.863281 275.527344 245.507812 275.527344 245.140625 275.523438 C 244.261719 275.519531 243.378906 275.507812 242.5 275.5 C 242.484375 274.652344 242.484375 274.652344 242.46875 273.789062 C 242.433594 271.6875 242.386719 269.589844 242.339844 267.492188 C 242.320312 266.585938 242.304688 265.675781 242.289062 264.769531 C 242.265625 263.460938 242.238281 262.15625 242.207031 260.851562 C 242.203125 260.445312 242.195312 260.039062 242.191406 259.625 C 242.144531 256.898438 242.144531 256.898438 241 254.5 C 239.84375 253.921875 239.097656 253.902344 237.8125 253.875 C 237.425781 253.863281 237.042969 253.847656 236.644531 253.835938 C 235.09375 254.058594 234.570312 254.335938 233.5 255.5 C 233.179688 257.035156 233.199219 258.566406 233.195312 260.132812 C 233.1875 260.582031 233.179688 261.035156 233.171875 261.503906 C 233.144531 262.949219 233.136719 264.398438 233.125 265.84375 C 233.109375 266.824219 233.097656 267.804688 233.078125 268.785156 C 233.042969 271.191406 233.019531 273.59375 233 276 C 230.03125 276 227.058594 276 224 276 C 224 266.429688 224 256.859375 224 247 C 226.144531 247 228.289062 247 230.5 247 C 230.996094 247.824219 231.488281 248.648438 232 249.5 C 233.171875 249.0625 234.296875 248.617188 235.382812 247.988281 C 238.761719 246.054688 242.085938 245.703125 245.6875 247.34375 Z M 245.6875 247.34375 "/>
<path style=" stroke:none;fill-rule:nonzero;fill:rgb(57.647061%,79.607844%,22.745098%);fill-opacity:1;" d="M 131.5 259.5 C 132.980469 260.152344 133.871094 260.78125 134.871094 262.046875 C 135.121094 262.363281 135.371094 262.675781 135.632812 263 C 136.03125 263.511719 136.03125 263.511719 136.4375 264.03125 C 137.019531 264.761719 137.601562 265.488281 138.179688 266.21875 C 138.480469 266.59375 138.78125 266.972656 139.089844 267.359375 C 140.550781 269.191406 142.039062 271.003906 143.53125 272.8125 C 143.820312 273.164062 144.105469 273.515625 144.402344 273.875 C 145.835938 275.621094 147.289062 277.339844 148.792969 279.023438 C 149.214844 279.5 149.214844 279.5 149.648438 279.984375 C 150.183594 280.585938 150.722656 281.179688 151.265625 281.769531 C 153.015625 283.734375 153.015625 283.734375 152.945312 284.945312 C 152.34375 286.371094 151.476562 287.191406 150.375 288.273438 C 149.734375 288.90625 149.734375 288.90625 149.078125 289.554688 C 148.628906 289.988281 148.179688 290.425781 147.71875 290.875 C 147.269531 291.320312 146.816406 291.761719 146.351562 292.21875 C 145.238281 293.316406 144.121094 294.410156 143 295.5 C 141.105469 294.621094 140.023438 293.566406 138.625 292 C 138.40625 291.753906 138.183594 291.507812 137.957031 291.253906 C 136.265625 289.34375 134.671875 287.367188 133.09375 285.363281 C 131.777344 283.722656 130.40625 282.125 129.03125 280.53125 C 128.519531 279.933594 128.007812 279.335938 127.496094 278.742188 C 126.535156 277.621094 125.570312 276.507812 124.597656 275.398438 C 124.183594 274.917969 123.769531 274.433594 123.34375 273.9375 C 122.972656 273.511719 122.605469 273.089844 122.226562 272.652344 C 121.5 271.5 121.5 271.5 121.523438 270.464844 C 122.117188 269.261719 122.832031 268.539062 123.8125 267.625 C 125.554688 265.953125 127.152344 264.214844 128.726562 262.382812 C 129.609375 261.375 130.535156 260.425781 131.5 259.5 Z M 131.5 259.5 "/>
<path style=" stroke:none;fill-rule:nonzero;fill:rgb(18.039216%,18.431373%,18.82353%);fill-opacity:1;" d="M 369.6875 244 C 372.574219 246.199219 374.828125 248.507812 375.390625 252.195312 C 375.78125 256.902344 376.070312 261.34375 373.5 265.5 C 371.644531 267.597656 369.550781 268.898438 366.769531 269.167969 C 366.125 269.175781 365.476562 269.179688 364.8125 269.1875 C 364.167969 269.203125 363.527344 269.214844 362.863281 269.230469 C 360.070312 268.886719 358.582031 267.597656 356.65625 265.625 C 353.703125 261.476562 353.527344 257.5 354 252.5 C 354.914062 248.699219 356.585938 246.386719 359.75 244.09375 C 362.960938 243.003906 366.441406 243.039062 369.6875 244 Z M 369.6875 244 "/>
<path style=" stroke:none;fill-rule:nonzero;fill:rgb(12.54902%,54.11765%,82.352942%);fill-opacity:1;" d="M 289.5 238.5 C 291.644531 238.5 293.789062 238.5 296 238.5 C 296 241.46875 296 244.441406 296 247.5 C 298.308594 247.5 300.621094 247.5 303 247.5 C 303 249.480469 303 251.460938 303 253.5 C 300.691406 253.5 298.378906 253.5 296 253.5 C 296.058594 255.546875 296.121094 257.59375 296.1875 259.640625 C 296.207031 260.335938 296.230469 261.03125 296.25 261.730469 C 296.277344 262.730469 296.308594 263.730469 296.34375 264.730469 C 296.359375 265.332031 296.378906 265.933594 296.398438 266.554688 C 296.40625 267.96875 296.40625 267.96875 297 269 C 298.484375 269 299.96875 269 301.5 269 C 302.324219 270.648438 303.148438 272.300781 304 274 C 301.183594 275.984375 299.449219 276.574219 296.03125 276.625 C 295.519531 276.636719 295.011719 276.652344 294.484375 276.664062 C 292.160156 276.40625 290.589844 275.320312 289.125 273.53125 C 287.359375 271.128906 287.429688 269.109375 287.453125 266.195312 C 287.453125 265.832031 287.453125 265.46875 287.453125 265.09375 C 287.457031 263.9375 287.460938 262.78125 287.46875 261.625 C 287.472656 260.839844 287.472656 260.054688 287.476562 259.265625 C 287.480469 257.34375 287.488281 255.421875 287.5 253.5 C 286.015625 253.5 284.53125 253.5 283 253.5 C 283 251.851562 283 250.199219 283 248.5 C 284.683594 247.75 285.601562 247.5 287.5 247.5 C 287.5625 247.144531 287.621094 246.789062 287.683594 246.421875 C 288.15625 243.722656 288.6875 241.113281 289.5 238.5 Z M 289.5 238.5 "/>
<path style=" stroke:none;fill-rule:nonzero;fill:rgb(1.568628%,13.725491%,24.705882%);fill-opacity:1;" d="M 438 248.5 C 438.496094 248.828125 438.988281 249.160156 439.5 249.5 C 439.191406 251.496094 438.148438 252.871094 437 254.5 C 436.726562 254.390625 436.453125 254.285156 436.171875 254.171875 C 432.910156 252.964844 429.867188 252.378906 426.5 253.5 C 426.601562 255.40625 426.601562 255.40625 427.5 257 C 429.070312 257.664062 430.648438 258.0625 432.296875 258.492188 C 434.972656 259.289062 437.445312 260.527344 439.109375 262.847656 C 440.242188 265.175781 440.484375 267.566406 439.65625 270.023438 C 438.378906 272.867188 436.714844 274.632812 433.898438 276.054688 C 432.121094 276.621094 430.441406 276.671875 428.59375 276.65625 C 428.058594 276.652344 428.058594 276.652344 427.515625 276.652344 C 423.746094 276.574219 421.152344 275.566406 418 273.5 C 418.683594 271.503906 419.628906 270.101562 421 268.5 C 423.875 269.4375 423.875 269.4375 425 270 C 426.019531 270.035156 427.042969 270.042969 428.0625 270.03125 C 428.609375 270.027344 429.15625 270.023438 429.722656 270.015625 C 430.144531 270.011719 430.566406 270.007812 431 270 C 431.386719 268.828125 431.386719 268.828125 431.5 267.5 C 430.460938 265.871094 428.945312 265.597656 427.15625 265.09375 C 423.695312 263.992188 421.15625 262.589844 419 259.625 C 418.121094 256.773438 417.902344 253.835938 419.25 251.09375 C 423.417969 244.773438 432.023438 245.648438 438 248.5 Z M 438 248.5 "/>
<path style=" stroke:none;fill-rule:nonzero;fill:rgb(12.156863%,50.196081%,78.039217%);fill-opacity:1;" d="M 343 248.5 C 343.707031 249.421875 343.707031 249.421875 344 250.5 C 343.550781 251.679688 343.550781 251.679688 342.8125 252.875 C 342.449219 253.472656 342.449219 253.472656 342.082031 254.085938 C 341.792969 254.539062 341.792969 254.539062 341.5 255 C 341.027344 254.835938 340.550781 254.671875 340.0625 254.5 C 337.234375 253.699219 334.300781 253.503906 331.53125 254.5625 C 329.84375 256.097656 329.128906 257.480469 328.839844 259.757812 C 328.703125 263.003906 329.195312 265.753906 331 268.5 C 333.019531 269.847656 334.628906 269.722656 337 269.5 C 337.835938 269.175781 338.671875 268.84375 339.5 268.5 C 340.917969 268.5 341.667969 268.703125 342.730469 269.652344 C 343.4375 270.4375 343.4375 270.4375 344.5 272 C 343.929688 273.707031 343.628906 273.898438 342.15625 274.8125 C 341.824219 275.023438 341.492188 275.238281 341.148438 275.457031 C 337.554688 277.152344 332.320312 277.171875 328.554688 276.082031 C 324.90625 274.417969 322.089844 271.765625 320.53125 268.03125 C 319.355469 263.769531 319.144531 258.296875 320.96875 254.21875 C 322.957031 250.925781 326.074219 247.847656 329.820312 246.703125 C 334.246094 245.945312 339.144531 245.917969 343 248.5 Z M 343 248.5 "/>
<path style=" stroke:none;fill-rule:nonzero;fill:rgb(23.137255%,29.411766%,63.137257%);fill-opacity:1;" d="M 85.5 226.5 C 85.5 228.148438 85.5 229.800781 85.5 231.5 C 85.003906 231.5 84.511719 231.5 84 231.5 C 84 231.003906 84 230.511719 84 230 C 83.1875 230.476562 82.375 230.957031 81.5625 231.4375 C 80.882812 231.835938 80.882812 231.835938 80.191406 232.246094 C 78.96875 232.960938 78.96875 232.960938 78 234 C 77.847656 235.191406 77.847656 235.191406 77.871094 236.589844 C 77.867188 237.128906 77.863281 237.671875 77.859375 238.226562 C 77.863281 238.816406 77.863281 239.40625 77.867188 240.011719 C 77.867188 240.617188 77.867188 241.222656 77.863281 241.847656 C 77.863281 243.132812 77.867188 244.421875 77.871094 245.707031 C 77.875 247.660156 77.871094 249.613281 77.863281 251.570312 C 77.863281 252.820312 77.863281 254.074219 77.867188 255.324219 C 77.863281 255.902344 77.863281 256.480469 77.859375 257.078125 C 77.9375 270.710938 83.800781 281.746094 93 291.5 C 93.324219 291.863281 93.652344 292.226562 93.984375 292.601562 C 100.238281 299.296875 109.832031 305.613281 118.5 308.5 C 123.457031 308.242188 128.90625 303.46875 132.777344 300.574219 C 134.902344 299 134.902344 299 136 299 C 135.164062 297.5 134.277344 296.230469 133.125 294.96875 C 132 293.5 132 293.5 132.09375 292.3125 C 132.226562 292.042969 132.363281 291.777344 132.5 291.5 C 133.347656 292.320312 134.175781 293.152344 135 294 C 135.316406 294.324219 135.636719 294.652344 135.960938 294.984375 C 136.285156 295.332031 136.605469 295.675781 136.9375 296.03125 C 137.246094 296.355469 137.554688 296.683594 137.871094 297.015625 C 138.5 298 138.5 298 138.394531 298.976562 C 137.914062 300.226562 137.429688 300.605469 136.335938 301.367188 C 135.992188 301.609375 135.644531 301.855469 135.289062 302.105469 C 134.726562 302.488281 134.726562 302.488281 134.15625 302.875 C 133.585938 303.269531 133.585938 303.269531 133.003906 303.671875 C 122.1875 311.054688 122.1875 311.054688 118.65625 310.96875 C 116.269531 310.292969 114.183594 309.195312 112 308.03125 C 111.535156 307.785156 111.070312 307.542969 110.59375 307.289062 C 106.636719 305.15625 103.074219 302.71875 99.5 300 C 98.851562 299.554688 98.207031 299.113281 97.558594 298.667969 C 97.042969 298.28125 96.53125 297.898438 96 297.5 C 96 297.171875 96 296.839844 96 296.5 C 95.710938 296.375 95.425781 296.25 95.128906 296.117188 C 91.65625 294.214844 89.113281 290.621094 86.71875 287.53125 C 86.496094 287.246094 86.277344 286.964844 86.050781 286.671875 C 84.5 284.628906 84.5 284.628906 84.5 283.5 C 83.757812 283.253906 83.757812 283.253906 83 283 C 82.476562 281.84375 81.976562 280.675781 81.5 279.5 C 81.269531 279.207031 81.035156 278.917969 80.796875 278.617188 C 79.734375 277.125 79.128906 275.515625 78.5 273.8125 C 78.304688 273.285156 78.304688 273.285156 78.105469 272.75 C 76.894531 269.390625 76.117188 266.015625 75.5 262.5 C 75.371094 261.796875 75.371094 261.796875 75.238281 261.082031 C 75.011719 259.570312 74.941406 258.164062 74.941406 256.636719 C 74.941406 256.085938 74.941406 255.535156 74.941406 254.96875 C 74.945312 254.382812 74.949219 253.796875 74.953125 253.191406 C 74.953125 252.585938 74.953125 251.980469 74.953125 251.355469 C 74.957031 249.425781 74.960938 247.492188 74.96875 245.5625 C 74.972656 244.25 74.972656 242.941406 74.976562 241.628906 C 74.980469 238.417969 74.988281 235.210938 75 232 C 76.65625 231.082031 78.3125 230.164062 79.96875 229.25 C 80.441406 228.988281 80.914062 228.726562 81.402344 228.453125 C 81.851562 228.207031 82.300781 227.957031 82.765625 227.703125 C 83.179688 227.472656 83.597656 227.242188 84.023438 227.003906 C 85 226.5 85 226.5 85.5 226.5 Z M 85.5 226.5 "/>
<path style=" stroke:none;fill-rule:nonzero;fill:rgb(13.333334%,51.372552%,79.607844%);fill-opacity:1;" d="M 307 247.5 C 309.804688 247.5 312.609375 247.5 315.5 247.5 C 315.5 256.90625 315.5 266.308594 315.5 276 C 312.695312 276 309.890625 276 307 276 C 307 266.59375 307 257.191406 307 247.5 Z M 307 247.5 "/>
<path style=" stroke:none;fill-rule:nonzero;fill:rgb(12.156863%,50.588238%,80.000001%);fill-opacity:1;" d="M 210 247.5 C 212.640625 247.5 215.28125 247.5 218 247.5 C 218 256.738281 218 265.980469 218 275.5 C 211 275.5 211 275.5 210 275 C 210 265.925781 210 256.851562 210 247.5 Z M 210 247.5 "/>
<path style=" stroke:none;fill-rule:nonzero;fill:rgb(58.431375%,58.431375%,58.823532%);fill-opacity:1;" d="M 483.5 472 C 483.828125 472 484.160156 472 484.5 472 C 484.753906 472.589844 484.753906 472.589844 485.015625 473.1875 C 487.527344 478.632812 490.394531 481.410156 496 483.5 C 496 483.828125 496 484.160156 496 484.5 C 495.609375 484.671875 495.214844 484.839844 494.8125 485.015625 C 489.367188 487.527344 486.589844 490.394531 484.5 496 C 484.171875 496 483.839844 496 483.5 496 C 483.328125 495.609375 483.160156 495.214844 482.984375 494.8125 C 480.472656 489.367188 477.605469 486.589844 472 484.5 C 472 484.171875 472 483.839844 472 483.5 C 472.390625 483.328125 472.785156 483.160156 473.1875 482.984375 C 478.632812 480.472656 481.410156 477.605469 483.5 472 Z M 483.5 472 "/>
<path style=" stroke:none;fill-rule:nonzero;fill:rgb(25.098041%,74.901962%,91.37255%);fill-opacity:1;" d="M 139.5 206 C 139.5 206.164062 139.5 206.328125 139.5 206.5 C 138.667969 206.597656 137.832031 206.691406 137 206.78125 C 136.535156 206.832031 136.070312 206.886719 135.59375 206.9375 C 134.101562 206.996094 132.753906 206.832031 131.28125 206.625 C 128.214844 206.324219 125.113281 206.402344 122.03125 206.40625 C 121.476562 206.40625 121.476562 206.40625 120.910156 206.40625 C 115.550781 206.421875 110.277344 206.46875 105 207.5 C 104.605469 207.574219 104.214844 207.652344 103.808594 207.726562 C 94.570312 209.566406 85.964844 212.917969 77.5 217 C 77.335938 219.308594 77.171875 221.621094 77 224 C 77.484375 223.722656 77.972656 223.441406 78.472656 223.15625 C 82.636719 220.832031 86.828125 218.878906 91.3125 217.25 C 91.773438 217.082031 92.234375 216.914062 92.710938 216.738281 C 95.148438 215.878906 97.425781 215.253906 100 215 C 100 215.496094 100 215.988281 100 216.5 C 99.738281 216.59375 99.472656 216.691406 99.203125 216.789062 C 93.960938 218.695312 88.816406 220.726562 83.78125 223.125 C 83.347656 223.332031 82.914062 223.535156 82.464844 223.75 C 80.65625 224.625 78.921875 225.507812 77.265625 226.648438 C 76 227.5 76 227.5 75 227.5 C 75 223.539062 75 219.578125 75 215.5 C 82.382812 211.808594 89.5 208.554688 97.5 206.5 C 97.996094 206.371094 98.492188 206.246094 99.003906 206.113281 C 112.074219 202.910156 126.441406 202.566406 139.5 206 Z M 139.5 206 "/>
<path style=" stroke:none;fill-rule:nonzero;fill:rgb(18.039216%,18.431373%,19.215687%);fill-opacity:1;" d="M 405 253.5 C 407.554688 256.121094 407.625 258.054688 407.625 261.625 C 407.570312 264.910156 407.132812 266.773438 404.875 269.21875 C 403.097656 270.230469 402.019531 270.253906 400 270 C 398.84375 269.421875 397.914062 268.914062 397 268 C 396.832031 265.953125 396.835938 263.898438 396.8125 261.84375 C 396.792969 261.265625 396.773438 260.6875 396.757812 260.09375 C 396.710938 255.828125 396.710938 255.828125 398.203125 254.128906 C 400.667969 252.933594 402.273438 252.816406 405 253.5 Z M 405 253.5 "/>
<path style=" stroke:none;fill-rule:nonzero;fill:rgb(78.039217%,92.156863%,39.607844%);fill-opacity:1;" d="M 162.5 202.5 C 162.5 202.996094 162.5 203.488281 162.5 204 C 158.945312 206.03125 155.207031 207.347656 151.351562 208.664062 C 147.511719 209.976562 143.753906 211.449219 140 213 C 140 213.328125 140 213.660156 140 214 C 140.894531 214.679688 140.894531 214.679688 142 215.3125 C 142.371094 215.535156 142.742188 215.757812 143.125 215.988281 C 143.414062 216.15625 143.703125 216.324219 144 216.5 C 143.5625 218.734375 142.292969 220.058594 140.8125 221.71875 C 140.269531 222.339844 139.726562 222.960938 139.179688 223.585938 C 138.765625 224.058594 138.765625 224.058594 138.339844 224.542969 C 137.011719 226.054688 135.707031 227.589844 134.40625 229.125 C 134.171875 229.398438 133.9375 229.671875 133.695312 229.957031 C 132.46875 231.390625 132.46875 231.390625 131.5 233 C 130.839844 232.835938 130.179688 232.671875 129.5 232.5 C 129.335938 232.996094 129.171875 233.488281 129 234 C 128.671875 234 128.339844 234 128 234 C 128.765625 232.285156 129.773438 230.972656 130.96875 229.53125 C 131.367188 229.050781 131.765625 228.566406 132.179688 228.070312 C 133.089844 226.984375 134.007812 225.898438 134.929688 224.820312 C 135.414062 224.253906 135.894531 223.691406 136.375 223.125 C 136.609375 222.851562 136.84375 222.574219 137.085938 222.292969 C 138.667969 220.425781 140.132812 218.527344 141.5 216.5 C 141.085938 216.386719 140.675781 216.273438 140.25 216.15625 C 138.132812 215.363281 136.375 214.246094 134.5 213 C 135.898438 211.601562 137.59375 211.132812 139.414062 210.460938 C 139.808594 210.3125 140.203125 210.164062 140.609375 210.011719 C 141.875 209.535156 143.140625 209.066406 144.40625 208.59375 C 145.648438 208.128906 146.890625 207.664062 148.132812 207.195312 C 148.945312 206.894531 149.753906 206.589844 150.566406 206.289062 C 152.378906 205.613281 154.183594 204.933594 155.980469 204.21875 C 156.554688 203.988281 157.132812 203.761719 157.726562 203.523438 C 158.21875 203.324219 158.710938 203.125 159.21875 202.921875 C 160.5 202.5 160.5 202.5 162.5 202.5 Z M 162.5 202.5 "/>
<path style=" stroke:none;fill-rule:nonzero;fill:rgb(21.568628%,80.000001%,91.37255%);fill-opacity:1;" d="M 119.875 203.78125 C 120.457031 203.78125 120.457031 203.78125 121.050781 203.78125 C 127.375 203.800781 133.363281 204.386719 139.5 206 C 139.5 206.164062 139.5 206.328125 139.5 206.5 C 138.667969 206.597656 137.832031 206.691406 137 206.78125 C 136.535156 206.832031 136.070312 206.886719 135.59375 206.9375 C 134.101562 206.996094 132.753906 206.832031 131.28125 206.625 C 128.214844 206.324219 125.113281 206.402344 122.03125 206.40625 C 121.476562 206.40625 121.476562 206.40625 120.910156 206.40625 C 112.933594 206.429688 105.664062 207.179688 97.929688 209.207031 C 97.507812 209.316406 97.082031 209.425781 96.644531 209.539062 C 96.265625 209.636719 95.886719 209.738281 95.5 209.84375 C 94.5 210 94.5 210 93 209.5 C 93.265625 208.5625 93.265625 208.5625 94 207.5 C 95.289062 207.046875 96.453125 206.734375 97.78125 206.46875 C 98.109375 206.394531 98.441406 206.320312 98.78125 206.246094 C 100.015625 205.976562 101.257812 205.738281 102.5 205.5 C 103.121094 205.371094 103.742188 205.246094 104.378906 205.113281 C 109.574219 204.082031 114.585938 203.742188 119.875 203.78125 Z M 119.875 203.78125 "/>
<path style=" stroke:none;fill-rule:nonzero;fill:rgb(68.627453%,88.235295%,21.960784%);fill-opacity:1;" d="M 313 234 C 315.769531 235.539062 315.769531 235.539062 316.5 237 C 316.695312 239.089844 316.726562 240.15625 315.5625 241.9375 C 314.140625 243.359375 313.304688 243.601562 311.34375 243.6875 C 309.527344 243.660156 309.0625 243.542969 307.5 242.46875 C 306.28125 240.679688 305.925781 239.667969 306 237.5 C 307.742188 234.445312 309.578125 233.714844 313 234 Z M 313 234 "/>
<path style=" stroke:none;fill-rule:nonzero;fill:rgb(68.235296%,87.450981%,23.137255%);fill-opacity:1;" d="M 216 234 C 217.402344 234.671875 217.929688 235.273438 219 236.5 C 219.601562 238.480469 219.714844 239.496094 218.90625 241.40625 C 217.367188 243.265625 216.453125 243.457031 214.03125 243.6875 C 211.976562 243.640625 210.945312 242.988281 209.5 241.5 C 208.726562 239.949219 208.855469 238.710938 209 237 C 210.851562 234.160156 212.640625 233.457031 216 234 Z M 216 234 "/>
<path style=" stroke:none;fill-rule:nonzero;fill:rgb(45.09804%,68.235296%,16.470589%);fill-opacity:1;" d="M 131.5 259.5 C 133.4375 260.375 133.4375 260.375 134 261.5 C 134.160156 262.671875 134.160156 262.671875 134 264 C 133.121094 265.140625 133.121094 265.140625 131.9375 266.25 C 131.527344 266.636719 131.121094 267.027344 130.699219 267.425781 C 129.734375 268.289062 128.757812 269.125 127.75 269.9375 C 126.386719 270.910156 126.386719 270.910156 126 272.5 C 124.59375 272.84375 124.59375 272.84375 123 273 C 122.03125 272.40625 122.03125 272.40625 121.5 271.5 C 121.703125 269.667969 122.492188 268.859375 123.8125 267.625 C 125.554688 265.953125 127.152344 264.214844 128.726562 262.382812 C 129.609375 261.375 130.535156 260.425781 131.5 259.5 Z M 131.5 259.5 "/>
<path style=" stroke:none;fill-rule:nonzero;fill:rgb(14.509805%,55.29412%,70.19608%);fill-opacity:1;" d="M 121 224.5 C 123.277344 224.777344 123.277344 224.777344 124 225.5 C 124.019531 226.332031 124.019531 227.167969 124 228 C 123.503906 228.164062 123.011719 228.328125 122.5 228.5 C 122.59375 228.851562 122.683594 229.203125 122.78125 229.5625 C 123.054688 231.4375 123.015625 232.664062 122.5 234.5 C 121.488281 235.800781 120.285156 236.816406 119.015625 237.867188 C 118.664062 238.160156 118.308594 238.453125 117.945312 238.757812 C 117.195312 239.378906 116.441406 240 115.6875 240.621094 C 110.488281 244.988281 106.019531 249.058594 105.328125 256.101562 C 105.007812 261.074219 105.371094 266.066406 106 271 C 105.671875 271 105.339844 271 105 271 C 104.914062 268.144531 104.851562 265.289062 104.808594 262.433594 C 104.789062 261.464844 104.765625 260.492188 104.734375 259.523438 C 104.691406 258.125 104.671875 256.726562 104.65625 255.328125 C 104.640625 254.894531 104.621094 254.464844 104.601562 254.023438 C 104.601562 252.203125 104.644531 250.984375 105.742188 249.492188 C 106.628906 248.609375 107.542969 247.800781 108.5 247 C 109.066406 246.359375 109.628906 245.714844 110.171875 245.058594 C 111.476562 243.546875 112.847656 242.171875 114.3125 240.816406 C 114.707031 240.445312 115.101562 240.074219 115.507812 239.695312 C 116.320312 238.933594 117.140625 238.183594 117.972656 237.445312 C 120.183594 235.375 120.183594 235.375 121.300781 232.636719 C 121.328125 231.351562 121.300781 230.246094 121 229 C 120.671875 228.671875 120.339844 228.339844 120 228 C 119.875 226.75 119.875 226.75 120 225.5 C 120.328125 225.171875 120.660156 224.839844 121 224.5 Z M 121 224.5 "/>
<path style=" stroke:none;fill-rule:nonzero;fill:rgb(10.196079%,31.37255%,47.843137%);fill-opacity:1;" d="M 111 230.5 C 112.5625 230.6875 112.5625 230.6875 114 231 C 114 231.988281 114 232.980469 114 234 C 113.339844 234.164062 112.679688 234.328125 112 234.5 C 111.988281 234.839844 111.972656 235.179688 111.960938 235.53125 C 111.269531 237.730469 109.773438 238.9375 108.125 240.5 C 107.8125 240.800781 107.503906 241.101562 107.183594 241.414062 C 106.574219 242.003906 105.964844 242.59375 105.351562 243.179688 C 104.21875 244.269531 103.109375 245.382812 102 246.5 C 101.753906 246.746094 101.753906 246.746094 101.5 247 C 101.242188 249.871094 101.148438 252.742188 101.078125 255.625 C 101.046875 256.59375 101.003906 257.5625 100.945312 258.527344 C 100.496094 264.773438 100.496094 264.773438 103.089844 270.242188 C 104.757812 272.011719 106.5625 273.53125 108.5 275 C 106.402344 275 105.4375 273.894531 104 272.5 C 102.800781 271.195312 101.648438 269.851562 100.5 268.5 C 100.335938 268.335938 100.171875 268.171875 100 268 C 99.792969 265.011719 99.734375 262.019531 99.6875 259.023438 C 99.667969 258.015625 99.636719 257.007812 99.59375 255.996094 C 99.261719 247.621094 99.261719 247.621094 101.070312 244.875 C 102.324219 243.746094 103.566406 242.878906 105 242 C 105.652344 241.402344 106.292969 240.792969 106.90625 240.15625 C 107.175781 239.878906 107.449219 239.597656 107.726562 239.3125 C 107.984375 239.042969 108.238281 238.777344 108.5 238.5 C 108.757812 238.230469 109.019531 237.964844 109.289062 237.6875 C 110.089844 236.835938 110.089844 236.835938 111 235.5 C 111.003906 234.425781 111.003906 234.425781 110.5 233.5 C 110.15625 232.4375 110.15625 232.4375 110 231.5 C 110.328125 231.171875 110.660156 230.839844 111 230.5 Z M 111 230.5 "/>
<path style=" stroke:none;fill-rule:nonzero;fill:rgb(17.647059%,19.607843%,21.176471%);fill-opacity:1;" d="M 271.875 253.15625 C 273 254 273 254 274 255.5 C 274 256.488281 274 257.480469 274 258.5 C 270.371094 258.5 266.738281 258.5 263 258.5 C 263.5 255 263.5 255 264.6875 253.8125 C 267.089844 252.328125 269.277344 251.917969 271.875 253.15625 Z M 271.875 253.15625 "/>
<path style=" stroke:none;fill-rule:nonzero;fill:rgb(12.54902%,52.549022%,70.980394%);fill-opacity:1;" d="M 111.5 220.5 C 113.875 220.875 113.875 220.875 115 222 C 115 222.660156 115 223.320312 115 224 C 114.671875 224 114.339844 224 114 224 C 113.753906 223.257812 113.753906 223.257812 113.5 222.5 C 112.492188 222.132812 112.492188 222.132812 111.5 222 C 111.886719 223.539062 111.886719 223.539062 113 224.5 C 112.582031 224.386719 112.582031 224.386719 112.15625 224.273438 C 109.824219 223.722656 107.867188 223.460938 105.5 224 C 103.078125 225.515625 101.140625 227.394531 99.15625 229.4375 C 98.886719 229.707031 98.617188 229.976562 98.339844 230.253906 C 94.183594 234.453125 94.183594 234.453125 92.621094 240.015625 C 92.785156 243.300781 92.785156 243.300781 94.5 246 C 94.59375 247.28125 94.59375 247.28125 94.5 248.5 C 94 249 94 249 92.5 249.0625 C 91 249 91 249 90.5 248.5 C 90.40625 247.28125 90.40625 247.28125 90.5 246 C 90.828125 245.671875 91.160156 245.339844 91.5 245 C 91.535156 243.972656 91.566406 242.941406 91.5625 241.914062 C 91.5625 236.71875 91.5625 236.71875 92.851562 234.601562 C 93.851562 233.644531 94.886719 232.824219 96 232 C 96.390625 231.503906 96.785156 231.011719 97.1875 230.5 C 97.457031 230.171875 97.722656 229.839844 98 229.5 C 98.328125 229.5 98.660156 229.5 99 229.5 C 99.121094 229.222656 99.238281 228.945312 99.359375 228.664062 C 100.730469 226.171875 102.734375 224.183594 105 222.5 C 106.53125 222.113281 107.800781 222.023438 109.375 222.078125 C 109.746094 222.054688 110.117188 222.027344 110.5 222 C 110.828125 221.503906 111.160156 221.011719 111.5 220.5 Z M 111.5 220.5 "/>
<path style=" stroke:none;fill-rule:nonzero;fill:rgb(61.56863%,82.745099%,26.666668%);fill-opacity:1;" d="M 124 272.5 C 128.148438 274.226562 131.054688 279.132812 133.800781 282.535156 C 134.660156 283.585938 135.53125 284.625 136.417969 285.652344 C 143 293.28125 143 293.28125 143 295.5 C 141.078125 294.722656 139.992188 293.53125 138.625 292 C 138.40625 291.753906 138.183594 291.507812 137.957031 291.253906 C 136.269531 289.347656 134.675781 287.375 133.101562 285.375 C 131.265625 283.082031 129.335938 280.871094 127.414062 278.648438 C 127.183594 278.375 126.949219 278.101562 126.707031 277.816406 C 126.226562 277.261719 125.738281 276.714844 125.246094 276.175781 C 124.539062 275.382812 124.539062 275.382812 123.5 274 C 123.664062 273.503906 123.828125 273.011719 124 272.5 Z M 124 272.5 "/>
<path style=" stroke:none;fill-rule:nonzero;fill:rgb(68.235296%,88.235295%,29.411766%);fill-opacity:1;" d="M 129.5 232.5 C 129.996094 232.664062 130.488281 232.828125 131 233 C 128.945312 235.917969 126.644531 238.542969 124.226562 241.164062 C 123.1875 242.296875 122.164062 243.4375 121.15625 244.59375 C 120.882812 244.90625 120.609375 245.21875 120.328125 245.542969 C 119.742188 246.21875 119.167969 246.898438 118.59375 247.582031 C 117.039062 249.425781 115.714844 250.925781 113.5 252 C 114.140625 249.699219 114.988281 248.191406 116.53125 246.375 C 116.933594 245.898438 117.335938 245.421875 117.75 244.929688 C 119.277344 243.183594 120.828125 241.460938 122.398438 239.75 C 123.902344 238.042969 125.273438 236.242188 126.636719 234.417969 C 126.921875 234.113281 127.207031 233.8125 127.5 233.5 C 127.996094 233.5 128.488281 233.5 129 233.5 C 129.164062 233.171875 129.328125 232.839844 129.5 232.5 Z M 129.5 232.5 "/>
<path style=" stroke:none;fill-rule:nonzero;fill:rgb(10.980392%,23.137255%,40.784314%);fill-opacity:1;" d="M 94.5 258.5 C 94.996094 258.746094 94.996094 258.746094 95.5 259 C 95.496094 259.402344 95.488281 259.804688 95.484375 260.222656 C 95.46875 262.066406 95.484375 263.90625 95.5 265.75 C 95.492188 266.382812 95.480469 267.019531 95.46875 267.671875 C 95.519531 270.859375 95.585938 273.007812 97.902344 275.339844 C 98.589844 275.910156 99.289062 276.464844 100 277 C 100.691406 277.601562 101.378906 278.203125 102.0625 278.8125 C 102.394531 279.09375 102.726562 279.371094 103.066406 279.660156 C 103.96875 280.472656 104.714844 281.328125 105.5 282.25 C 106.808594 283.597656 106.808594 283.597656 108.039062 283.539062 C 109.03125 283.390625 110.015625 283.195312 111 283 C 112 284 112 284 112.125 285.25 C 112 286.5 112 286.5 111 287.5 C 109.75 287.625 109.75 287.625 108.5 287.5 C 108.171875 287.171875 107.839844 286.839844 107.5 286.5 C 107.5 286.003906 107.5 285.511719 107.5 285 C 107.21875 284.882812 106.9375 284.761719 106.648438 284.640625 C 105.234375 283.851562 104.285156 282.886719 103.152344 281.734375 C 102.710938 281.285156 102.273438 280.839844 101.820312 280.382812 C 101.363281 279.914062 100.90625 279.449219 100.4375 278.96875 C 99.53125 278.046875 98.625 277.121094 97.714844 276.203125 C 97.113281 275.585938 97.113281 275.585938 96.5 274.957031 C 95.570312 273.972656 95.570312 273.972656 94.5 273.5 C 94.5 268.550781 94.5 263.601562 94.5 258.5 Z M 94.5 258.5 "/>
<path style=" stroke:none;fill-rule:nonzero;fill:rgb(20%,72.156864%,92.156863%);fill-opacity:1;" d="M 100 215.5 C 100 215.828125 100 216.160156 100 216.5 C 99.738281 216.59375 99.472656 216.691406 99.203125 216.789062 C 91.210938 219.695312 83.59375 223.183594 76 227 C 76 226.671875 76 226.339844 76 226 C 76.660156 225.835938 77.320312 225.671875 78 225.5 C 78 225.171875 78 224.839844 78 224.5 C 77.671875 224.335938 77.339844 224.171875 77 224 C 94.839844 213.78125 94.839844 213.78125 100 215.5 Z M 100 215.5 "/>
<path style=" stroke:none;fill-rule:nonzero;fill:rgb(49.803922%,69.803923%,21.568628%);fill-opacity:1;" d="M 110.5 253.5 C 110.664062 253.5 110.828125 253.5 111 253.5 C 111.164062 255.480469 111.328125 257.460938 111.5 259.5 C 111.828125 259.171875 112.160156 258.839844 112.5 258.5 C 112.53125 258.800781 112.5625 259.101562 112.59375 259.414062 C 112.632812 259.8125 112.675781 260.214844 112.71875 260.625 C 112.78125 261.214844 112.78125 261.214844 112.84375 261.820312 C 112.96875 262.976562 112.96875 262.976562 113.265625 263.96875 C 113.566406 265.289062 113.546875 266.523438 113.53125 267.875 C 113.527344 268.367188 113.523438 268.859375 113.515625 269.367188 C 113.511719 269.742188 113.507812 270.113281 113.5 270.5 C 113.996094 270.664062 114.488281 270.828125 115 271 C 114.523438 271.585938 114.042969 272.167969 113.5625 272.75 C 113.164062 273.238281 113.164062 273.238281 112.753906 273.734375 C 112.503906 273.988281 112.257812 274.238281 112 274.5 C 111.671875 274.5 111.339844 274.5 111 274.5 C 110.152344 272.808594 110.441406 270.886719 110.453125 269.027344 C 110.453125 268.585938 110.453125 268.140625 110.453125 267.6875 C 110.457031 266.269531 110.460938 264.855469 110.46875 263.4375 C 110.472656 262.480469 110.472656 261.519531 110.476562 260.5625 C 110.480469 258.207031 110.488281 255.851562 110.5 253.5 Z M 110.5 253.5 "/>
<path style=" stroke:none;fill-rule:nonzero;fill:rgb(10.588235%,39.215687%,57.254905%);fill-opacity:1;" d="M 106 227 C 108.277344 227.277344 108.277344 227.277344 109 228 C 109.019531 228.832031 109.019531 229.667969 109 230.5 C 108.339844 230.664062 107.679688 230.828125 107 231 C 107.050781 231.359375 107.101562 231.722656 107.15625 232.09375 C 106.933594 234.101562 105.984375 234.65625 104.5 236 C 103.957031 236.386719 103.40625 236.761719 102.851562 237.132812 C 100.425781 238.859375 98.371094 240.445312 97.652344 243.449219 C 97.246094 246.960938 97.300781 250.476562 97.5 254 C 97.003906 254.246094 97.003906 254.246094 96.5 254.5 C 96.441406 252.46875 96.40625 250.4375 96.375 248.40625 C 96.359375 247.832031 96.339844 247.253906 96.324219 246.664062 C 96.316406 246.105469 96.3125 245.550781 96.304688 244.976562 C 96.292969 244.46875 96.285156 243.957031 96.273438 243.429688 C 96.679688 240.875 98.527344 239.382812 100.4375 237.78125 C 100.953125 237.332031 100.953125 237.332031 101.476562 236.871094 C 102.117188 236.324219 102.773438 235.792969 103.445312 235.285156 C 104.328125 234.554688 104.9375 234.003906 105.5 233 C 105.539062 231.628906 105.386719 230.429688 105.117188 229.085938 C 105.078125 228.726562 105.039062 228.371094 105 228 C 105.328125 227.671875 105.660156 227.339844 106 227 Z M 106 227 "/>
<path style=" stroke:none;fill-rule:nonzero;fill:rgb(22.352941%,84.313726%,94.509804%);fill-opacity:1;" d="M 115 204 C 123.433594 203.761719 131.28125 204.007812 139.5 206 C 139.5 206.164062 139.5 206.328125 139.5 206.5 C 135.765625 207.074219 132.492188 206.84375 128.773438 206.273438 C 124.058594 205.632812 119.25 205.644531 114.5 205.5 C 114.664062 205.003906 114.828125 204.511719 115 204 Z M 115 204 "/>
<path style=" stroke:none;fill-rule:nonzero;fill:rgb(77.64706%,90.196079%,37.254903%);fill-opacity:1;" d="M 162.5 202.5 C 162.5 202.996094 162.5 203.488281 162.5 204 C 157.679688 206.820312 152.289062 208.316406 147 210 C 147 209.503906 147 209.011719 147 208.5 C 146.671875 208.335938 146.339844 208.171875 146 208 C 148.027344 207.210938 150.054688 206.429688 152.085938 205.648438 C 152.773438 205.382812 153.464844 205.117188 154.152344 204.851562 C 155.144531 204.464844 156.140625 204.082031 157.132812 203.703125 C 158.027344 203.359375 158.027344 203.359375 158.941406 203.003906 C 160.5 202.5 160.5 202.5 162.5 202.5 Z M 162.5 202.5 "/>
<path style=" stroke:none;fill-rule:nonzero;fill:rgb(13.333334%,49.411765%,75.294119%);fill-opacity:1;" d="M 117 274 C 118.453125 274.652344 119.425781 275.320312 120.492188 276.5 C 120.882812 276.933594 120.882812 276.933594 121.285156 277.375 C 121.550781 277.671875 121.820312 277.972656 122.09375 278.28125 C 122.367188 278.582031 122.640625 278.882812 122.921875 279.195312 C 123.617188 279.960938 124.308594 280.730469 125 281.5 C 125.164062 281.664062 125.328125 281.828125 125.5 282 C 125.535156 283.175781 125.542969 284.355469 125.53125 285.53125 C 125.527344 286.175781 125.523438 286.820312 125.515625 287.484375 C 125.511719 287.984375 125.507812 288.484375 125.5 289 C 125.996094 289.164062 126.488281 289.328125 127 289.5 C 127.0625 290.6875 127.0625 290.6875 127 292 C 126.671875 292.328125 126.339844 292.660156 126 293 C 123.722656 292.722656 123.722656 292.722656 123 292 C 122.980469 291.167969 122.980469 290.332031 123 289.5 C 123.496094 289.335938 123.988281 289.171875 124.5 289 C 124.820312 286.273438 124.882812 283.777344 123.289062 281.472656 C 121.542969 279.410156 119.621094 277.53125 117.632812 275.699219 C 117 275 117 275 117 274 Z M 117 274 "/>
<path style=" stroke:none;fill-rule:nonzero;fill:rgb(10.980392%,33.725491%,50.980395%);fill-opacity:1;" d="M 112.5 242.5 C 112.828125 242.828125 113.160156 243.160156 113.5 243.5 C 113.003906 243.882812 112.503906 244.261719 111.992188 244.65625 C 108.648438 247.4375 106.171875 249.835938 105.753906 254.320312 C 105.675781 256.617188 105.722656 258.890625 105.8125 261.1875 C 105.824219 262.144531 105.832031 263.097656 105.835938 264.054688 C 105.855469 266.371094 105.914062 268.683594 106 271 C 105.671875 271 105.339844 271 105 271 C 104.914062 268.144531 104.851562 265.289062 104.808594 262.433594 C 104.789062 261.464844 104.765625 260.492188 104.734375 259.523438 C 104.691406 258.125 104.671875 256.726562 104.65625 255.328125 C 104.640625 254.894531 104.621094 254.464844 104.601562 254.023438 C 104.601562 251.550781 104.929688 250.300781 106.703125 248.523438 C 107.296875 248.007812 107.894531 247.5 108.5 247 C 109.15625 246.277344 109.804688 245.550781 110.4375 244.8125 C 111.984375 243.015625 111.984375 243.015625 112.5 242.5 Z M 112.5 242.5 "/>
<path style=" stroke:none;fill-rule:nonzero;fill:rgb(36.470589%,57.647061%,14.117648%);fill-opacity:1;" d="M 132 261.5 C 132.328125 261.664062 132.660156 261.828125 133 262 C 132.738281 263.960938 132.289062 264.964844 130.921875 266.382812 C 130.449219 266.878906 130.449219 266.878906 129.96875 267.386719 C 129.636719 267.722656 129.308594 268.058594 128.96875 268.40625 C 128.636719 268.753906 128.304688 269.097656 127.964844 269.457031 C 127.148438 270.308594 126.324219 271.15625 125.5 272 C 124.839844 271.671875 124.179688 271.339844 123.5 271 C 123.5 270 123.5 270 124.5 268.96875 C 124.726562 268.753906 124.949219 268.539062 125.179688 268.320312 C 126.578125 266.921875 127.832031 265.398438 129.117188 263.898438 C 129.40625 263.601562 129.699219 263.304688 130 263 C 130.328125 263 130.660156 263 131 263 C 131 262.671875 131 262.339844 131 262 C 131.328125 261.835938 131.660156 261.671875 132 261.5 Z M 132 261.5 "/>
<path style=" stroke:none;fill-rule:nonzero;fill:rgb(10.588235%,53.725493%,73.725492%);fill-opacity:1;" d="M 111 230.5 C 112.5625 230.6875 112.5625 230.6875 114 231 C 114 231.988281 114 232.980469 114 234 C 113.339844 234.164062 112.679688 234.328125 112 234.5 C 111.988281 234.839844 111.972656 235.179688 111.960938 235.53125 C 111.269531 237.730469 109.773438 238.9375 108.125 240.5 C 107.8125 240.800781 107.503906 241.101562 107.183594 241.414062 C 105.820312 242.738281 104.449219 244.046875 103.0625 245.351562 C 102.066406 246.429688 101.648438 247 101.34375 248.40625 C 101.230469 248.933594 101.117188 249.457031 101 250 C 100.835938 250 100.671875 250 100.5 250 C 100.285156 248.464844 100.164062 247.484375 100.5 246 C 101.359375 244.964844 102.292969 244.214844 103.351562 243.390625 C 105.234375 241.929688 106.855469 240.21875 108.5 238.5 C 108.773438 238.21875 109.042969 237.9375 109.324219 237.648438 C 110.121094 236.8125 110.121094 236.8125 111 235.5 C 111.003906 234.425781 111.003906 234.425781 110.5 233.5 C 110.15625 232.4375 110.15625 232.4375 110 231.5 C 110.328125 231.171875 110.660156 230.839844 111 230.5 Z M 111 230.5 "/>
<path style=" stroke:none;fill-rule:nonzero;fill:rgb(30.588236%,46.666667%,73.725492%);fill-opacity:1;" d="M 132.5 291.5 C 133.347656 292.320312 134.175781 293.152344 135 294 C 135.316406 294.324219 135.636719 294.652344 135.960938 294.984375 C 136.285156 295.332031 136.605469 295.675781 136.9375 296.03125 C 137.246094 296.355469 137.554688 296.683594 137.871094 297.015625 C 138.5 298 138.5 298 138.46875 299.019531 C 137.875 300.265625 137.195312 300.832031 136.09375 301.65625 C 135.75 301.921875 135.40625 302.1875 135.054688 302.460938 C 134 303 134 303 132.867188 302.835938 C 132.582031 302.722656 132.296875 302.613281 132 302.5 C 132.792969 300.917969 133.226562 300.132812 134.84375 299.34375 C 135.226562 299.230469 135.605469 299.117188 136 299 C 135.164062 297.5 134.277344 296.230469 133.125 294.96875 C 132 293.5 132 293.5 132.09375 292.3125 C 132.226562 292.042969 132.363281 291.777344 132.5 291.5 Z M 132.5 291.5 "/>
<path style=" stroke:none;fill-rule:nonzero;fill:rgb(26.666668%,36.078432%,64.313728%);fill-opacity:1;" d="M 131.5 301.5 C 131.828125 301.664062 132.160156 301.828125 132.5 302 C 132.664062 302.496094 132.828125 302.988281 133 303.5 C 132.511719 303.8125 132.023438 304.125 131.523438 304.449219 C 130.878906 304.863281 130.234375 305.273438 129.59375 305.6875 C 129.113281 305.996094 129.113281 305.996094 128.621094 306.3125 C 127.238281 307.199219 125.863281 308.089844 124.5 309 C 123.839844 309 123.179688 309 122.5 309 C 122.6875 307.761719 122.820312 307.15625 123.78125 306.320312 C 124.113281 306.125 124.441406 305.929688 124.78125 305.726562 C 125.136719 305.511719 125.496094 305.292969 125.863281 305.070312 C 126.238281 304.851562 126.613281 304.632812 127 304.40625 C 127.738281 303.960938 128.480469 303.515625 129.21875 303.070312 C 129.546875 302.878906 129.878906 302.683594 130.21875 302.484375 C 130.992188 302.046875 130.992188 302.046875 131.5 301.5 Z M 131.5 301.5 "/>
<path style=" stroke:none;fill-rule:nonzero;fill:rgb(12.941177%,34.117648%,50.980395%);fill-opacity:1;" d="M 92 236 C 92.328125 236.164062 92.660156 236.328125 93 236.5 C 93.023438 237.101562 93.050781 237.703125 93.074219 238.324219 C 93.113281 239.113281 93.148438 239.898438 93.1875 240.6875 C 93.203125 241.085938 93.21875 241.480469 93.234375 241.890625 C 93.257812 244.183594 93.257812 244.183594 94.5 246 C 94.59375 247.28125 94.59375 247.28125 94.5 248.5 C 94 249 94 249 92.5 249.0625 C 91 249 91 249 90.5 248.5 C 90.40625 247.28125 90.40625 247.28125 90.5 246 C 90.828125 245.671875 91.160156 245.339844 91.5 245 C 91.683594 244.035156 91.683594 244.035156 91.707031 242.933594 C 91.726562 242.53125 91.746094 242.128906 91.765625 241.710938 C 91.78125 241.292969 91.796875 240.871094 91.8125 240.4375 C 91.832031 240.011719 91.851562 239.589844 91.871094 239.148438 C 91.917969 238.101562 91.960938 237.050781 92 236 Z M 92 236 "/>
<path style=" stroke:none;fill-rule:nonzero;fill:rgb(23.921569%,58.039218%,81.960785%);fill-opacity:1;" d="M 85.5 226.5 C 85.5 228.148438 85.5 229.800781 85.5 231.5 C 85.003906 231.5 84.511719 231.5 84 231.5 C 84 231.003906 84 230.511719 84 230 C 83.539062 230.28125 83.539062 230.28125 83.070312 230.5625 C 82.664062 230.800781 82.261719 231.039062 81.84375 231.28125 C 81.242188 231.636719 81.242188 231.636719 80.632812 232 C 79.5 232.5 79.5 232.5 78 232 C 78.328125 231.671875 78.660156 231.339844 79 231 C 78.671875 230.835938 78.339844 230.671875 78 230.5 C 79.15625 229.832031 80.3125 229.164062 81.46875 228.5 C 81.796875 228.308594 82.128906 228.117188 82.46875 227.921875 C 84.945312 226.5 84.945312 226.5 85.5 226.5 Z M 85.5 226.5 "/>
<path style=" stroke:none;fill-rule:nonzero;fill:rgb(9.411765%,35.686275%,59.607846%);fill-opacity:1;" d="M 114 277.5 C 115.5 278 115.5 278 116.4375 279.1875 C 117.527344 280.53125 118.484375 281.199219 120 282 C 119.5625 284.4375 119.5625 284.4375 119 285 C 117.5 285.0625 117.5 285.0625 116 285 C 115.5 284.5 115.5 284.5 115.46875 283.3125 C 115.480469 282.878906 115.488281 282.445312 115.5 282 C 115.5 280.21875 115.054688 279.859375 114 278.5 C 114 278.171875 114 277.839844 114 277.5 Z M 114 277.5 "/>
<path style=" stroke:none;fill-rule:nonzero;fill:rgb(80.784315%,93.333334%,43.137255%);fill-opacity:1;" d="M 138.5 213.5 C 139.328125 213.867188 140.148438 214.242188 140.96875 214.625 C 141.425781 214.832031 141.886719 215.042969 142.359375 215.257812 C 143.5 216 143.5 216 143.945312 217.035156 C 144 218 144 218 143.4375 218.8125 C 142.339844 219.617188 141.277344 220.035156 140 220.5 C 139.332031 220.828125 138.664062 221.160156 138 221.5 C 138.210938 221.222656 138.421875 220.945312 138.640625 220.660156 C 138.914062 220.296875 139.1875 219.9375 139.46875 219.5625 C 139.878906 219.023438 139.878906 219.023438 140.296875 218.472656 C 141.019531 217.527344 141.019531 217.527344 141.5 216.5 C 140.511719 216.171875 139.519531 215.839844 138.5 215.5 C 138.5 214.839844 138.5 214.179688 138.5 213.5 Z M 138.5 213.5 "/>
<path style=" stroke:none;fill-rule:nonzero;fill:rgb(14.117648%,12.54902%,38.431373%);fill-opacity:1;" d="M 106.5 301.5 C 107.65625 301.828125 108.808594 302.160156 110 302.5 C 110 302.828125 110 303.160156 110 303.5 C 110.355469 303.632812 110.710938 303.765625 111.078125 303.90625 C 113.027344 304.71875 114.8125 305.777344 116.640625 306.828125 C 117.953125 307.476562 119.058594 307.789062 120.5 308 C 120.5 308.328125 120.5 308.660156 120.5 309 C 117.839844 308.722656 115.839844 307.804688 113.5 306.59375 C 112.984375 306.335938 112.984375 306.335938 112.460938 306.074219 C 110.371094 305.011719 108.378906 303.902344 106.5 302.5 C 106.5 302.171875 106.5 301.839844 106.5 301.5 Z M 106.5 301.5 "/>
<path style=" stroke:none;fill-rule:nonzero;fill:rgb(14.509805%,45.882353%,60.000002%);fill-opacity:1;" d="M 106 227 C 108.277344 227.277344 108.277344 227.277344 109 228 C 109.019531 228.832031 109.019531 229.667969 109 230.5 C 108.011719 230.996094 107.019531 231.488281 106 232 C 104.925781 230.386719 104.808594 229.867188 105 228 C 105.328125 227.671875 105.660156 227.339844 106 227 Z M 106 227 "/>
<path style=" stroke:none;fill-rule:nonzero;fill:rgb(77.254903%,91.37255%,39.607844%);fill-opacity:1;" d="M 132.5 227.5 C 133.160156 227.664062 133.820312 227.828125 134.5 228 C 133.816406 229.996094 132.871094 231.398438 131.5 233 C 130.839844 232.835938 130.179688 232.671875 129.5 232.5 C 129.335938 232.996094 129.171875 233.488281 129 234 C 128.671875 234 128.339844 234 128 234 C 128.746094 232.359375 129.691406 231.035156 130.8125 229.625 C 131.128906 229.226562 131.445312 228.824219 131.769531 228.414062 C 132.011719 228.113281 132.25 227.8125 132.5 227.5 Z M 132.5 227.5 "/>
<path style=" stroke:none;fill-rule:nonzero;fill:rgb(10.588235%,30.19608%,49.019608%);fill-opacity:1;" d="M 92.21875 255.40625 C 93.5 255.5 93.5 255.5 94.5 256.5 C 94.3125 257.8125 94.3125 257.8125 94 259 C 92.84375 259.34375 92.84375 259.34375 91.5 259.5 C 90.5625 258.90625 90.5625 258.90625 90 258 C 90.207031 256.246094 90.394531 255.546875 92.21875 255.40625 Z M 92.21875 255.40625 "/>
<path style=" stroke:none;fill-rule:nonzero;fill:rgb(17.254902%,61.56863%,81.568629%);fill-opacity:1;" d="M 121 224.5 C 123.277344 224.777344 123.277344 224.777344 124 225.5 C 124.0625 226.75 124.0625 226.75 124 228 C 123.5 228.5 123.5 228.5 122 228.5625 C 120.5 228.5 120.5 228.5 120 228 C 119.90625 226.78125 119.90625 226.78125 120 225.5 C 120.328125 225.171875 120.660156 224.839844 121 224.5 Z M 121 224.5 "/>
<path style=" stroke:none;fill-rule:nonzero;fill:rgb(10.196079%,44.313726%,62.352943%);fill-opacity:1;" d="M 110.5 236 C 110.828125 236.328125 111.160156 236.660156 111.5 237 C 109.757812 238.742188 108.015625 240.484375 106.273438 242.226562 C 105.972656 242.527344 105.671875 242.832031 105.359375 243.144531 C 104.605469 243.894531 103.835938 244.628906 103.0625 245.359375 C 102.0625 246.433594 101.648438 247 101.34375 248.40625 C 101.171875 249.195312 101.171875 249.195312 101 250 C 100.835938 250 100.671875 250 100.5 250 C 100.285156 248.464844 100.164062 247.484375 100.5 246 C 101.359375 244.964844 102.292969 244.21875 103.351562 243.394531 C 106.054688 241.289062 108.449219 238.734375 110.5 236 Z M 110.5 236 "/>
<path style=" stroke:none;fill-rule:nonzero;fill:rgb(49.019608%,70.588237%,18.039216%);fill-opacity:1;" d="M 131.5 259.5 C 133.4375 260.375 133.4375 260.375 134 261.5 C 134.171875 262.664062 134.171875 262.664062 134 264 C 133.015625 265.226562 133.015625 265.226562 131.75 266.40625 C 131.332031 266.800781 130.914062 267.195312 130.484375 267.601562 C 130.160156 267.898438 129.835938 268.195312 129.5 268.5 C 129.5 267 129.5 267 130.171875 266.265625 C 130.746094 265.777344 131.320312 265.285156 131.890625 264.796875 C 132.09375 264.535156 132.292969 264.273438 132.5 264 C 132.382812 262.917969 132.382812 262.917969 132 262 C 131.175781 262.164062 130.351562 262.328125 129.5 262.5 C 130.074219 261.265625 130.523438 260.476562 131.5 259.5 Z M 131.5 259.5 "/>
<path style=" stroke:none;fill-rule:nonzero;fill:rgb(46.27451%,67.843139%,18.431373%);fill-opacity:1;" d="M 112.5 263 C 113.5 264 113.5 264 113.597656 265.519531 C 113.585938 266.109375 113.574219 266.703125 113.5625 267.3125 C 113.554688 267.90625 113.542969 268.5 113.535156 269.113281 C 113.523438 269.570312 113.511719 270.027344 113.5 270.5 C 113.996094 270.664062 114.488281 270.828125 115 271 C 114.523438 271.585938 114.042969 272.167969 113.5625 272.75 C 113.296875 273.074219 113.027344 273.398438 112.753906 273.734375 C 112.503906 273.988281 112.257812 274.238281 112 274.5 C 111.671875 274.5 111.339844 274.5 111 274.5 C 111.160156 274.183594 111.316406 273.867188 111.480469 273.539062 C 112.175781 271.472656 112.230469 269.511719 112.3125 267.34375 C 112.332031 266.925781 112.351562 266.507812 112.371094 266.078125 C 112.417969 265.050781 112.460938 264.027344 112.5 263 Z M 112.5 263 "/>
<path style=" stroke:none;fill-rule:nonzero;fill:rgb(25.098041%,69.803923%,87.843138%);fill-opacity:1;" d="M 85 227 C 85 227.660156 85 228.320312 85 229 C 84.011719 229.328125 83.019531 229.660156 82 230 C 82 230.164062 82 230.328125 82 230.5 C 80.679688 230.664062 79.359375 230.828125 78 231 C 79.136719 229.753906 80.304688 228.96875 81.78125 228.15625 C 82.171875 227.9375 82.566406 227.71875 82.96875 227.492188 C 84 227 84 227 85 227 Z M 85 227 "/>
<path style=" stroke:none;fill-rule:nonzero;fill:rgb(10.980392%,40.392157%,56.078434%);fill-opacity:1;" d="M 112.5 242.5 C 112.828125 242.828125 113.160156 243.160156 113.5 243.5 C 111.023438 245.976562 108.550781 248.449219 106 251 C 106 249.226562 106.242188 249.058594 107.421875 247.820312 C 107.714844 247.511719 108.007812 247.199219 108.3125 246.878906 C 108.621094 246.558594 108.929688 246.238281 109.25 245.90625 C 109.558594 245.578125 109.871094 245.253906 110.1875 244.914062 C 110.957031 244.105469 111.726562 243.300781 112.5 242.5 Z M 112.5 242.5 "/>
<path style=" stroke:none;fill-rule:nonzero;fill:rgb(23.921569%,39.607844%,69.803923%);fill-opacity:1;" d="M 77 232.5 C 77.660156 232.664062 78.320312 232.828125 79 233 C 78.671875 233.328125 78.339844 233.660156 78 234 C 77.898438 235.359375 77.898438 235.359375 77.96875 236.9375 C 78.023438 240.15625 77.824219 243.300781 77.5 246.5 C 77.335938 246.5 77.171875 246.5 77 246.5 C 77 241.878906 77 237.261719 77 232.5 Z M 77 232.5 "/>
<path style=" stroke:none;fill-rule:nonzero;fill:rgb(11.372549%,43.921569%,63.921571%);fill-opacity:1;" d="M 100 227.5 C 100.164062 227.996094 100.328125 228.488281 100.5 229 C 98.023438 231.476562 95.550781 233.949219 93 236.5 C 93 234.4375 94.101562 233.585938 95.4375 232.15625 C 95.78125 231.773438 95.78125 231.773438 96.132812 231.382812 C 96.734375 230.730469 97.363281 230.113281 98 229.5 C 98.328125 229.5 98.660156 229.5 99 229.5 C 99.328125 228.839844 99.660156 228.179688 100 227.5 Z M 100 227.5 "/>
<path style=" stroke:none;fill-rule:nonzero;fill:rgb(14.901961%,34.509805%,48.627451%);fill-opacity:1;" d="M 127 289.5 C 127.0625 290.6875 127.0625 290.6875 127 292 C 126.671875 292.328125 126.339844 292.660156 126 293 C 124.6875 292.8125 124.6875 292.8125 123.5 292.5 C 123.664062 291.675781 123.828125 290.851562 124 290 C 126.4375 289.5 126.4375 289.5 127 289.5 Z M 127 289.5 "/>
<path style=" stroke:none;fill-rule:nonzero;fill:rgb(32.941177%,60.784316%,81.176472%);fill-opacity:1;" d="M 132.5 291.5 C 133.964844 292.925781 135.320312 294.324219 136.5 296 C 136.335938 296.328125 136.171875 296.660156 136 297 C 134.105469 296.253906 133.097656 295.207031 132 293.5 C 132.125 292.34375 132.125 292.34375 132.5 291.5 Z M 132.5 291.5 "/>
<path style=" stroke:none;fill-rule:nonzero;fill:rgb(21.960784%,54.901963%,83.529413%);fill-opacity:1;" d="M 77.5 216.5 C 77.996094 216.664062 78.488281 216.828125 79 217 C 78.835938 217.445312 78.671875 217.886719 78.5 218.34375 C 78.042969 219.855469 77.910156 220.941406 78 222.5 C 78.496094 222.664062 78.988281 222.828125 79.5 223 C 78.675781 223.328125 77.851562 223.660156 77 224 C 76.988281 222.84375 76.976562 221.6875 76.96875 220.53125 C 76.964844 219.886719 76.957031 219.242188 76.953125 218.578125 C 77 217 77 217 77.5 216.5 Z M 77.5 216.5 "/>
<path style=" stroke:none;fill-rule:nonzero;fill:rgb(14.509805%,44.705883%,66.274512%);fill-opacity:1;" d="M 125 282 C 125.164062 282 125.328125 282 125.5 282 C 125.5 284.308594 125.5 286.621094 125.5 289 C 125.828125 289 126.160156 289 126.5 289 C 126.335938 289.496094 126.171875 289.988281 126 290.5 C 125.339844 290.5 124.679688 290.5 124 290.5 C 123.671875 290.996094 123.339844 291.488281 123 292 C 122.90625 290.8125 122.90625 290.8125 123 289.5 C 123.496094 289.171875 123.988281 288.839844 124.5 288.5 C 124.792969 286.941406 124.792969 286.941406 124.84375 285.1875 C 124.894531 284.296875 124.894531 284.296875 124.945312 283.386719 C 124.972656 282.699219 124.972656 282.699219 125 282 Z M 125 282 "/>
<path style=" stroke:none;fill-rule:nonzero;fill:rgb(14.901961%,29.411766%,41.960785%);fill-opacity:1;" d="M 116.5 281 C 116.664062 281.328125 116.828125 281.660156 117 282 C 117.496094 282 117.988281 282 118.5 282 C 118.335938 282.824219 118.171875 283.648438 118 284.5 C 117.03125 284.78125 117.03125 284.78125 116 285 C 115.5 284.5 115.5 284.5 115.40625 283.28125 C 115.5 282 115.5 282 116.5 281 Z M 116.5 281 "/>
<path style=" stroke:none;fill-rule:nonzero;fill:rgb(48.627451%,71.764708%,18.82353%);fill-opacity:1;" d="M 128 255.5 C 128.328125 255.664062 128.660156 255.828125 129 256 C 126.855469 258.308594 124.710938 260.621094 122.5 263 C 122.5 260.835938 123.828125 259.886719 125.25 258.40625 C 125.511719 258.125 125.773438 257.847656 126.046875 257.558594 C 126.691406 256.871094 127.347656 256.183594 128 255.5 Z M 128 255.5 "/>
<path style=" stroke:none;fill-rule:nonzero;fill:rgb(16.078432%,16.078432%,41.960785%);fill-opacity:1;" d="M 113 305 C 113.332031 305.175781 113.664062 305.347656 114.007812 305.53125 C 114.667969 305.871094 114.667969 305.871094 115.34375 306.21875 C 115.996094 306.558594 115.996094 306.558594 116.664062 306.90625 C 117.953125 307.480469 119.105469 307.78125 120.5 308 C 120.5 308.328125 120.5 308.660156 120.5 309 C 117.386719 308.746094 114.773438 307.335938 112 306 C 112.328125 305.671875 112.660156 305.339844 113 305 Z M 113 305 "/>
<path style=" stroke:none;fill-rule:nonzero;fill:rgb(9.803922%,25.882354%,43.529412%);fill-opacity:1;" d="M 110 283.5 C 110.660156 283.664062 111.320312 283.828125 112 284 C 112.0625 285.1875 112.0625 285.1875 112 286.5 C 111 287.5 111 287.5 109.6875 287.5625 C 109.296875 287.542969 108.902344 287.519531 108.5 287.5 C 108.335938 286.675781 108.171875 285.851562 108 285 C 108.328125 285.328125 108.660156 285.660156 109 286 C 109.496094 286 109.988281 286 110.5 286 C 110.335938 285.175781 110.171875 284.351562 110 283.5 Z M 110 283.5 "/>
<path style=" stroke:none;fill-rule:nonzero;fill:rgb(10.196079%,36.078432%,57.254905%);fill-opacity:1;" d="M 91 245.5 C 91.328125 245.664062 91.660156 245.828125 92 246 C 91.835938 246.824219 91.671875 247.648438 91.5 248.5 C 91.996094 248.335938 92.488281 248.171875 93 248 C 93.367188 246.992188 93.367188 246.992188 93.5 246 C 93.828125 246 94.160156 246 94.5 246 C 94.519531 246.832031 94.519531 247.667969 94.5 248.5 C 94 249 94 249 92.5 249.0625 C 91 249 91 249 90.5 248.5 C 90.4375 247.25 90.4375 247.25 90.5 246 C 90.664062 245.835938 90.828125 245.671875 91 245.5 Z M 91 245.5 "/>
<path style=" stroke:none;fill-rule:nonzero;fill:rgb(12.54902%,48.627451%,64.313728%);fill-opacity:1;" d="M 117.5 237.5 C 117.664062 237.996094 117.828125 238.488281 118 239 C 117.355469 239.667969 116.710938 240.335938 116.0625 241 C 115.703125 241.371094 115.34375 241.742188 114.972656 242.125 C 114 243 114 243 113 243 C 113.703125 241.390625 114.550781 240.339844 115.8125 239.125 C 116.128906 238.816406 116.445312 238.511719 116.769531 238.195312 C 117.132812 237.851562 117.132812 237.851562 117.5 237.5 Z M 117.5 237.5 "/>
<path style=" stroke:none;fill-rule:nonzero;fill:rgb(48.627451%,69.01961%,20%);fill-opacity:1;" d="M 122 269.5 C 122.328125 269.5 122.660156 269.5 123 269.5 C 123 269.996094 123 270.488281 123 271 C 124.484375 271.246094 124.484375 271.246094 126 271.5 C 126 271.828125 126 272.160156 126 272.5 C 124.59375 272.84375 124.59375 272.84375 123 273 C 122.03125 272.40625 122.03125 272.40625 121.5 271.5 C 121.65625 270.40625 121.65625 270.40625 122 269.5 Z M 122 269.5 "/>
<path style=" stroke:none;fill-rule:nonzero;fill:rgb(16.862746%,72.549021%,91.37255%);fill-opacity:1;" d="M 132 206.5 C 134.144531 206.5 136.289062 206.5 138.5 206.5 C 137.480469 207.519531 136.851562 207.839844 135.53125 208.34375 C 135.1875 208.480469 134.839844 208.617188 134.484375 208.757812 C 133.5 209 133.5 209 132 208.5 C 132.328125 208.5 132.660156 208.5 133 208.5 C 133 208.171875 133 207.839844 133 207.5 C 132.671875 207.171875 132.339844 206.839844 132 206.5 Z M 132 206.5 "/>
<path style=" stroke:none;fill-rule:nonzero;fill:rgb(29.803923%,53.333336%,76.47059%);fill-opacity:1;" d="M 134.5 296 C 137.375 296.875 137.375 296.875 138.5 298 C 138.3125 299.0625 138.3125 299.0625 138 300 C 136.117188 299.371094 135.914062 298.703125 135 297 C 134.835938 296.671875 134.671875 296.339844 134.5 296 Z M 134.5 296 "/>
<path style=" stroke:none;fill-rule:nonzero;fill:rgb(73.333335%,89.803922%,35.294119%);fill-opacity:1;" d="M 130 230.5 C 130.824219 230.664062 131.648438 230.828125 132.5 231 C 132.171875 231.660156 131.839844 232.320312 131.5 233 C 130.839844 232.835938 130.179688 232.671875 129.5 232.5 C 129.335938 232.996094 129.171875 233.488281 129 234 C 128.671875 234 128.339844 234 128 234 C 128.601562 232.753906 129.226562 231.660156 130 230.5 Z M 130 230.5 "/>
<path style=" stroke:none;fill-rule:nonzero;fill:rgb(15.686275%,34.509805%,42.352942%);fill-opacity:1;" d="M 111.5 222 C 112.738281 222.246094 112.738281 222.246094 114 222.5 C 114.164062 223.160156 114.328125 223.820312 114.5 224.5 C 113.675781 224.664062 112.851562 224.828125 112 225 C 111.835938 224.011719 111.671875 223.019531 111.5 222 Z M 111.5 222 "/>
<path style=" stroke:none;fill-rule:nonzero;fill:rgb(13.725491%,64.705884%,92.941177%);fill-opacity:1;" d="M 196.578125 236.453125 C 197.546875 236.460938 197.546875 236.460938 198.53125 236.46875 C 199.175781 236.472656 199.820312 236.476562 200.484375 236.484375 C 200.984375 236.488281 201.484375 236.492188 202 236.5 C 202 236.664062 202 236.828125 202 237 C 201.394531 237.019531 201.394531 237.019531 200.773438 237.039062 C 196.707031 237.175781 196.707031 237.175781 193.5 239.5 C 194.648438 236.511719 194.648438 236.511719 196.578125 236.453125 Z M 196.578125 236.453125 "/>
<path style=" stroke:none;fill-rule:nonzero;fill:rgb(70.588237%,88.235295%,25.098041%);fill-opacity:1;" d="M 156 227.5 C 157 227.5 157 227.5 158.3125 228.75 C 158.703125 229.164062 159.097656 229.574219 159.5 230 C 159.664062 229.503906 159.828125 229.011719 160 228.5 C 160 229.65625 160 230.808594 160 232 C 159.425781 231.535156 158.851562 231.066406 158.28125 230.59375 C 157.800781 230.203125 157.800781 230.203125 157.3125 229.804688 C 156.5 229 156.5 229 156 227.5 Z M 156 227.5 "/>
<path style=" stroke:none;fill-rule:nonzero;fill:rgb(10.196079%,27.843139%,47.450981%);fill-opacity:1;" d="M 103.5 270.5 C 107.242188 273.574219 107.242188 273.574219 108.5 275.5 C 106.777344 274.734375 105.390625 273.777344 104 272.5 C 103.679688 271.433594 103.679688 271.433594 103.5 270.5 Z M 103.5 270.5 "/>
<path style=" stroke:none;fill-rule:nonzero;fill:rgb(21.176471%,23.529412%,45.882353%);fill-opacity:1;" d="M 82 212.5 C 78.78125 213.984375 78.78125 213.984375 75.5 215.5 C 76.632812 213.234375 76.632812 213.234375 78.46875 212.59375 C 78.984375 212.402344 78.984375 212.402344 79.515625 212.210938 C 80.5 212 80.5 212 82 212.5 Z M 82 212.5 "/>
<path style=" stroke:none;fill-rule:nonzero;fill:rgb(16.078432%,18.82353%,22.745098%);fill-opacity:1;" d="M 109 284 C 109.988281 284.246094 109.988281 284.246094 111 284.5 C 110.835938 285.160156 110.671875 285.820312 110.5 286.5 C 109.839844 286.335938 109.179688 286.171875 108.5 286 C 108.664062 285.339844 108.828125 284.679688 109 284 Z M 109 284 "/>
<path style=" stroke:none;fill-rule:nonzero;fill:rgb(80.784315%,92.54902%,45.490196%);fill-opacity:1;" d="M 138 212 C 137.835938 212.660156 137.671875 213.320312 137.5 214 C 136.28125 213.8125 136.28125 213.8125 135 213.5 C 134.835938 213.171875 134.671875 212.839844 134.5 212.5 C 135.730469 211.882812 136.640625 211.964844 138 212 Z M 138 212 "/>
<path style=" stroke:none;fill-rule:nonzero;fill:rgb(50.196081%,75.294119%,17.254902%);fill-opacity:1;" d="M 131.5 259.5 C 131.828125 259.5 132.160156 259.5 132.5 259.5 C 132.335938 260.324219 132.171875 261.148438 132 262 C 131.175781 262.164062 130.351562 262.328125 129.5 262.5 C 130.074219 261.265625 130.523438 260.476562 131.5 259.5 Z M 131.5 259.5 "/>
<path style=" stroke:none;fill-rule:nonzero;fill:rgb(21.568628%,52.549022%,79.607844%);fill-opacity:1;" d="M 85 226.5 C 85.164062 226.5 85.328125 226.5 85.5 226.5 C 85.5 228.148438 85.5 229.800781 85.5 231.5 C 85.003906 231.5 84.511719 231.5 84 231.5 C 83.835938 230.839844 83.671875 230.179688 83.5 229.5 C 83.996094 229.335938 84.488281 229.171875 85 229 C 85 228.175781 85 227.351562 85 226.5 Z M 85 226.5 "/>
<path style=" stroke:none;fill-rule:nonzero;fill:rgb(12.54902%,42.352942%,61.56863%);fill-opacity:1;" d="M 117 274 C 118.683594 274.695312 119.492188 275.488281 120.5 277 C 119 277 119 277 117.90625 276.0625 C 117 275 117 275 117 274 Z M 117 274 "/>
<path style=" stroke:none;fill-rule:nonzero;fill:rgb(18.431373%,20.784314%,22.745098%);fill-opacity:1;" d="M 91.5 256.5 C 92.160156 256.5 92.820312 256.5 93.5 256.5 C 93.5 257.160156 93.5 257.820312 93.5 258.5 C 92.675781 258.335938 91.851562 258.171875 91 258 C 91.164062 257.503906 91.328125 257.011719 91.5 256.5 Z M 91.5 256.5 "/>
<path style=" stroke:none;fill-rule:nonzero;fill:rgb(19.215687%,20.392157%,21.568628%);fill-opacity:1;" d="M 91.5 246 C 92.160156 246.164062 92.820312 246.328125 93.5 246.5 C 93.335938 247.160156 93.171875 247.820312 93 248.5 C 92.503906 248.5 92.011719 248.5 91.5 248.5 C 91.5 247.675781 91.5 246.851562 91.5 246 Z M 91.5 246 "/>
<path style=" stroke:none;fill-rule:nonzero;fill:rgb(24.705882%,66.666669%,83.137256%);fill-opacity:1;" d="M 82 228.5 C 82 229.160156 82 229.820312 82 230.5 C 80.679688 230.664062 79.359375 230.828125 78 231 C 80.386719 228.5 80.386719 228.5 82 228.5 Z M 82 228.5 "/>
<path style=" stroke:none;fill-rule:nonzero;fill:rgb(16.470589%,21.960784%,28.235295%);fill-opacity:1;" d="M 96 255 C 96.328125 255.164062 96.660156 255.328125 97 255.5 C 96.660156 255.808594 96.660156 255.808594 96.3125 256.125 C 95.46875 257.03125 95.003906 257.875 94.5 259 C 93.832031 257.667969 94.164062 256.917969 94.5 255.5 C 94.996094 255.335938 95.488281 255.171875 96 255 Z M 96 255 "/>
<path style=" stroke:none;fill-rule:nonzero;fill:rgb(21.176471%,25.490198%,27.058825%);fill-opacity:1;" d="M 111 231.5 C 112.238281 231.746094 112.238281 231.746094 113.5 232 C 113.335938 232.496094 113.171875 232.988281 113 233.5 C 112.339844 233.335938 111.679688 233.171875 111 233 C 111 232.503906 111 232.011719 111 231.5 Z M 111 231.5 "/>
<path style=" stroke:none;fill-rule:nonzero;fill:rgb(18.039216%,23.921569%,26.274511%);fill-opacity:1;" d="M 121.5 225.5 C 121.996094 225.664062 122.488281 225.828125 123 226 C 123 226.660156 123 227.320312 123 228 C 122.339844 227.835938 121.679688 227.671875 121 227.5 C 121.164062 226.839844 121.328125 226.179688 121.5 225.5 Z M 121.5 225.5 "/>
</g>
</svg>
